<svg width="60" height="60" viewBox="0 0 60 60" fill="none" xmlns="http://www.w3.org/2000/svg">
<path fill-rule="evenodd" clip-rule="evenodd" d="M34.1668 9.16679H51.6667C53.5077 9.16679 55 10.6591 55 12.5001V47.4999C55 49.3409 53.5077 50.8332 51.6667 50.8332H34.1668V52.3957C34.1649 53.8335 32.9999 54.9981 31.5625 55H7.60429C6.16653 54.9981 5.00191 53.8335 5 52.3957V7.60429C5.00191 6.16653 6.16653 5.00191 7.60429 5H31.6666C33.0476 5 34.1668 6.11923 34.1668 7.50015V9.16679ZM49.1666 49.1666V10.8334H45.0002V49.1666H49.1666ZM32.5002 13.3332H6.66664V43.3335H32.5002V13.3332ZM31.6666 6.66664H7.60429C7.08664 6.6674 6.6674 7.08664 6.66664 7.60429V11.6666H32.5002V7.50015C32.5002 7.03972 32.1271 6.66664 31.6666 6.66664ZM31.5625 53.3334C32.0798 53.3326 32.499 52.9134 32.5002 52.3957V45.0002H6.66664V52.3957C6.6674 52.9134 7.08664 53.3326 7.60429 53.3334H31.5625ZM43.3335 10.8334H34.1668V49.1666H43.3335V10.8334ZM51.6667 49.1666C52.5872 49.1666 53.3334 48.4204 53.3334 47.4999V12.5001C53.3334 11.5796 52.5872 10.8334 51.6667 10.8334H50.8332V49.1666H51.6667ZM15.8334 9.99989H22.4999C22.9604 9.99989 23.3334 9.62681 23.3334 9.16676C23.3334 8.70632 22.9604 8.33324 22.4999 8.33324H15.8334C15.3729 8.33324 14.9998 8.70632 14.9998 9.16676C14.9998 9.62681 15.3729 9.99989 15.8334 9.99989ZM25.8332 49.1666C25.8332 47.786 24.714 46.6668 23.3334 46.6668H14.9998C13.6193 46.6668 12.5001 47.786 12.5001 49.1666C12.5001 50.5475 13.6193 51.6667 14.9998 51.6667H23.3334C24.714 51.6667 25.8332 50.5475 25.8332 49.1666ZM24.1666 49.1666C24.1666 49.627 23.7935 50.0001 23.3334 50.0001H14.9998C14.5398 50.0001 14.1667 49.627 14.1667 49.1666C14.1667 48.7065 14.5398 48.3335 14.9998 48.3335H23.3334C23.7935 48.3335 24.1666 48.7065 24.1666 49.1666ZM27.1809 29.1664C27.7154 29.1672 28.217 29.4243 28.5298 29.8573C28.8415 30.2918 28.9258 30.8495 28.7568 31.3565L27.0001 36.6234C26.6618 37.6438 25.7077 38.3332 24.6323 38.3332H15.3676C14.2922 38.3332 13.3382 37.6438 13.0002 36.6234L11.2408 31.3576C11.0726 30.8499 11.1581 30.2929 11.4705 29.8592C11.7829 29.4255 12.2845 29.168 12.819 29.1664H13.6948L15.709 25.8099C16.0115 25.3086 16.5536 25.0012 17.1391 25H22.8608C23.4467 25.0016 23.9892 25.309 24.2917 25.8107L26.3051 29.1664H27.1809ZM22.8623 26.6667H17.1391L15.6392 29.1664H24.3626L22.8623 26.6667ZM24.6323 36.6665C24.9917 36.6665 25.3102 36.4365 25.4235 36.0958L27.1783 30.8335H25.8557C25.8485 30.8338 25.8412 30.8338 25.8343 30.8335H25.8107H12.819L14.5768 36.0958C14.6897 36.4365 15.0086 36.6665 15.3676 36.6665H24.6323ZM16.6665 32.5001C16.2064 32.5001 15.8334 32.8732 15.8334 33.3332V34.1668C15.8334 34.6268 16.2064 34.9999 16.6665 34.9999C17.1269 34.9999 17.5 34.6268 17.5 34.1668V33.3332C17.5 32.8732 17.1269 32.5001 16.6665 32.5001ZM19.1666 33.3332C19.1666 32.8732 19.5397 32.5001 20.0002 32.5001C20.4602 32.5001 20.8333 32.8732 20.8333 33.3332V34.1668C20.8333 34.6268 20.4602 34.9999 20.0002 34.9999C19.5397 34.9999 19.1666 34.6268 19.1666 34.1668V33.3332ZM23.3334 32.5001C22.873 32.5001 22.4999 32.8732 22.4999 33.3332V34.1668C22.4999 34.6268 22.873 34.9999 23.3334 34.9999C23.7935 34.9999 24.1666 34.6268 24.1666 34.1668V33.3332C24.1666 32.8732 23.7935 32.5001 23.3334 32.5001ZM41.4223 18.5777C41.097 18.2523 40.5698 18.2523 40.244 18.5777L39.5833 19.2384L38.9226 18.5777C38.5957 18.2618 38.0757 18.2664 37.7541 18.5876C37.4329 18.9092 37.4284 19.4287 37.7442 19.756L38.4049 20.4167L37.7442 21.0774C37.5275 21.2869 37.4406 21.5966 37.5169 21.8881C37.5932 22.1791 37.8209 22.4069 38.112 22.4832C38.4034 22.5594 38.7132 22.4725 38.9226 22.2558L39.5833 21.5951L40.244 22.2558C40.5713 22.5717 41.0909 22.5671 41.4124 22.2459C41.7336 21.9243 41.7382 21.4044 41.4223 21.0774L40.7616 20.4167L41.4223 19.756C41.7477 19.4302 41.7477 18.9031 41.4223 18.5777ZM40.244 24.4107C40.5698 24.0857 41.097 24.0857 41.4223 24.4107C41.7477 24.7361 41.7477 25.2636 41.4223 25.589L40.7616 26.2501L41.4223 26.9108C41.7382 27.2377 41.7336 27.7577 41.4124 28.0789C41.0909 28.4005 40.5713 28.405 40.244 28.0892L39.5833 27.4285L38.9226 28.0892C38.7132 28.3059 38.4034 28.3924 38.112 28.3165C37.8209 28.2402 37.5932 28.0125 37.5169 27.7211C37.4406 27.43 37.5275 27.1199 37.7442 26.9108L38.4049 26.2501L37.7442 25.589C37.4284 25.2621 37.4329 24.7425 37.7541 24.421C38.0757 24.0994 38.5957 24.0948 38.9226 24.4107L39.5833 25.0718L40.244 24.4107ZM40.7616 14.5833L41.4224 13.9226C41.7382 13.5957 41.7336 13.0757 41.4124 12.7542C41.0909 12.433 40.5713 12.4284 40.244 12.7442L39.5833 13.4049L38.9226 12.7442C38.5957 12.4284 38.0757 12.433 37.7541 12.7542C37.4329 13.0757 37.4284 13.5957 37.7442 13.9226L38.4049 14.5833L37.7442 15.244C37.5275 15.4534 37.4406 15.7632 37.5169 16.0546C37.5932 16.3461 37.8209 16.5734 38.112 16.6497C38.4034 16.726 38.7132 16.639 38.9226 16.4224L39.5833 15.7617L40.244 16.4224C40.5713 16.7382 41.0909 16.7337 41.4124 16.4125C41.7336 16.0909 41.7382 15.5713 41.4224 15.244L40.7616 14.5833ZM19.1666 22.989C18.7241 22.989 18.2999 22.8131 17.9875 22.4999L16.9118 21.4227C16.5959 21.0954 16.6005 20.5758 16.9217 20.2542C17.2433 19.933 17.7628 19.9284 18.0901 20.2443L19.1666 21.3208L22.7441 17.7449C23.071 17.4291 23.5909 17.4336 23.9125 17.7552C24.2337 18.0768 24.2383 18.5964 23.9224 18.9233L20.3458 22.4999C20.0333 22.8131 19.6092 22.989 19.1666 22.989Z" fill="#181815"/>
</svg>
