<svg width="60" height="60" viewBox="0 0 60 60" fill="none" xmlns="http://www.w3.org/2000/svg">
<path fill-rule="evenodd" clip-rule="evenodd" d="M53.3334 45.0001V22.4742C53.8716 21.7614 54.1641 20.8932 54.1667 20V18.0833C54.1668 17.5157 53.9737 16.965 53.6192 16.5217L47.8176 9.27169C47.3446 8.67706 46.6257 8.33145 45.8659 8.33331H45.0001V7.5C45.0001 6.11934 43.8807 5 42.5001 5H17.5C16.1194 5 15 6.11934 15 7.5V8.33331H14.1342C13.3742 8.33155 12.6551 8.67716 12.1817 9.27169L6.38164 16.5217C6.02686 16.9649 5.8335 17.5156 5.8333 18.0833V19.8567C5.83809 20.7718 6.12949 21.6624 6.6666 22.4034V45.0001C5.74619 45.0001 5 45.7463 5 46.6668V49.1668C5.0041 52.3867 7.61338 54.996 10.8333 55.0001H49.1667C52.3866 54.996 54.9959 52.3867 55 49.1668V46.6668C55.0001 45.7463 54.2539 45.0001 53.3334 45.0001ZM16.6667 7.5C16.6667 7.03975 17.0399 6.6667 17.5 6.6667H42.5001C42.9603 6.6667 43.3334 7.03985 43.3334 7.5V8.33331H16.6667V7.5ZM7.5 18.0833C7.5003 17.8942 7.56495 17.7109 7.68331 17.5633L13.4833 10.3133C13.6413 10.1153 13.8809 10.0001 14.1342 9.99991H45.8659C46.1191 9.99933 46.3587 10.1148 46.5159 10.3133L52.3176 17.5633C52.4356 17.711 52.5 17.8943 52.5001 18.0833V20C52.5001 21.3807 51.3807 22.5 50.0001 22.5C48.6194 22.5 47.5001 21.3807 47.5001 20V19.1342C47.5012 18.4396 47.284 17.7621 46.8793 17.1976L43.1776 12.0159C43.0097 11.7609 42.7158 11.6181 42.4115 11.6438C42.1072 11.6694 41.8414 11.8594 41.7185 12.139C41.5957 12.4186 41.6356 12.7429 41.8225 12.9843L45.5234 18.1668C45.7254 18.449 45.8338 18.7873 45.8334 19.1343V20.0001C45.8334 21.3808 44.714 22.5001 43.3334 22.5001C41.9527 22.5001 40.8334 21.3808 40.8334 20.0001V18.8468C40.8337 18.3953 40.7421 17.9485 40.5642 17.5334L38.2659 12.1718C38.0804 11.7557 37.5951 11.5656 37.1763 11.7451C36.7576 11.9246 36.5606 12.4072 36.7341 12.8284L39.0316 18.1876C39.1204 18.396 39.1664 18.6202 39.1666 18.8468V20.0001C39.1666 21.3808 38.0472 22.5001 36.6666 22.5001C35.2859 22.5001 34.1666 21.3808 34.1666 20.0001V18.511C34.1664 18.3532 34.1552 18.1955 34.1333 18.0393L33.325 12.3818C33.2596 11.9261 32.8373 11.6098 32.3816 11.6751C31.9259 11.7404 31.6095 12.1628 31.675 12.6185L32.4833 18.2784C32.4947 18.3554 32.5002 18.4331 32.5 18.511V20C32.5 21.3807 31.3807 22.5 29.9999 22.5C28.6193 22.5 27.4999 21.3807 27.4999 20V18.5109C27.4996 18.4322 27.5054 18.3536 27.5174 18.2759L28.3249 12.6184C28.3903 12.1627 28.0739 11.7403 27.6183 11.675C27.1626 11.6097 26.7403 11.9261 26.6749 12.3817L25.8674 18.0375C25.8448 18.1943 25.8333 18.3525 25.8332 18.5109V20C25.8332 21.3807 24.7139 22.5 23.3332 22.5C21.9526 22.5 20.8332 21.3807 20.8332 20V18.8467C20.8334 18.6207 20.8791 18.3972 20.9674 18.1892L23.2658 12.8283C23.4393 12.407 23.2423 11.9245 22.8236 11.745C22.4048 11.5655 21.9196 11.7556 21.734 12.1717L19.4349 17.5351C19.2575 17.9496 19.1662 18.3958 19.1665 18.8467V20C19.1665 21.3807 18.0472 22.5 16.6665 22.5C15.2859 22.5 14.1665 21.3807 14.1665 20V19.1342C14.166 18.7869 14.2744 18.4483 14.4765 18.1658L18.1774 12.9842C18.3643 12.7428 18.4042 12.4184 18.2814 12.1389C18.1585 11.8593 17.8927 11.6693 17.5884 11.6437C17.2841 11.618 16.9902 11.7609 16.8223 12.0158L13.1206 17.1975C12.7158 17.762 12.4987 18.4395 12.4998 19.1341V19.9999C12.5001 20.7067 12.2012 21.3804 11.6772 21.8545C11.1531 22.3286 10.4529 22.5589 9.74981 22.4882C8.43975 22.3113 7.47139 21.179 7.49981 19.8574V18.0833H7.5ZM8.33331 23.7917C8.73106 23.9798 9.15753 24.0998 9.59493 24.1467C11.0434 24.2899 12.4612 23.6654 13.3333 22.5C14.1202 23.5493 15.3552 24.1667 16.6666 24.1667C17.9781 24.1667 19.2131 23.5493 19.9999 22.5C20.7868 23.5493 22.0218 24.1667 23.3332 24.1667C24.6448 24.1667 25.8797 23.5493 26.6665 22.5C27.4535 23.5493 28.6884 24.1667 29.9999 24.1667C31.3114 24.1667 32.5463 23.5493 33.3332 22.5C34.1201 23.5493 35.355 24.1667 36.6665 24.1667C37.9779 24.1667 39.213 23.5493 39.9998 22.5C40.7867 23.5493 42.0216 24.1667 43.3331 24.1667C44.6445 24.1667 45.8796 23.5493 46.6664 22.5C47.8221 24.0512 49.8969 24.5972 51.6664 23.8159V45.0001H8.33331V23.7917ZM22.5 46.6668H37.5001V47.5001C37.5001 48.4206 36.7539 49.1668 35.8334 49.1668H24.1667C23.2462 49.1668 22.5 48.4206 22.5 47.5001V46.6668ZM53.3334 49.1668C53.3307 51.4668 51.4668 53.3307 49.1667 53.3335H10.8333C8.53331 53.3308 6.66944 51.4669 6.6666 49.1668V46.6668H20.8333V47.5001C20.8333 49.341 22.3257 50.8334 24.1666 50.8334H35.8334C37.6743 50.8334 39.1667 49.341 39.1667 47.5001V46.6668H53.3334V49.1668ZM18.3333 48.3334H15.8333C15.373 48.3334 15 48.7064 15 49.1667C15 49.6269 15.3731 50 15.8333 50H18.3333C18.7936 50 19.1666 49.6269 19.1666 49.1667C19.1666 48.7064 18.7936 48.3334 18.3333 48.3334ZM10 49.1677C10 49.6279 9.62693 50.001 9.16671 50.001C8.70649 50.001 8.33341 49.6279 8.33341 49.1677C8.33341 48.7075 8.70649 48.3344 9.16671 48.3344C9.62693 48.3344 10 48.7075 10 49.1677ZM12.5 50C12.9602 50 13.3333 49.627 13.3333 49.1667C13.3333 48.7065 12.9602 48.3334 12.5 48.3334C12.0398 48.3334 11.6667 48.7065 11.6667 49.1667C11.6667 49.627 12.0398 50 12.5 50ZM24.3245 42.854C23.44 42.185 23.1019 41.0132 23.4942 39.9759C22.4815 39.8566 21.6409 39.1378 21.3659 38.1557L19.0325 29.3998L19.0226 29.3614L18.695 28.1114C18.5907 27.7498 18.2599 27.5006 17.8834 27.4998H15.8334C15.3733 27.4998 15.0001 27.1268 15.0001 26.6665C15.0001 26.2064 15.3732 25.8332 15.8334 25.8332H17.8834C19.0125 25.8362 20.0016 26.5902 20.3034 27.6782L20.4759 28.3332H37.5001C38.2707 28.333 38.9983 28.6882 39.4721 29.2959C39.946 29.9036 40.1131 30.6959 39.9251 31.4432L38.2584 38.1099C38.0396 38.9879 37.3594 39.6768 36.4842 39.9066C36.8631 40.8429 36.6413 41.9151 35.9221 42.6243C35.203 43.3334 34.1278 43.5403 33.1969 43.1485C32.2661 42.7567 31.6624 41.8433 31.6667 40.8333C31.6695 40.5489 31.7213 40.2669 31.8201 40H28.18C28.5616 41.0414 28.2115 42.2096 27.3201 42.8695C26.4287 43.5293 25.2091 43.5231 24.3245 42.854ZM22.25 35L22.9717 37.7192C23.075 38.0821 23.4061 38.3326 23.7834 38.3333H26.5184L25.9625 35H22.25ZM30.9609 38.3333L31.5168 35H27.65L28.2059 38.3333H30.9609ZM26.8167 30L27.3725 33.3333H31.7942L32.3501 30H26.8167ZM25 40.8334C25 41.2937 25.3731 41.6667 25.8333 41.6667C26.2936 41.6667 26.6666 41.2937 26.6666 40.8334C26.6666 40.3732 26.2936 40.0001 25.8333 40.0001C25.3731 40.0001 25 40.3732 25 40.8334ZM33.3335 40.8334C33.3335 41.2937 33.7065 41.6667 34.1668 41.6667C34.627 41.6667 35.0001 41.2937 35.0001 40.8334C35.0001 40.3732 34.627 40.0001 34.1668 40.0001C33.7065 40.0001 33.3335 40.3732 33.3335 40.8334ZM32.6501 38.3333H35.8334C36.2142 38.3339 36.5469 38.0763 36.6418 37.7075L37.3184 35H33.2059L32.6501 38.3333ZM38.3092 31.0401C38.3727 30.7902 38.3171 30.5249 38.1584 30.3217C38.0009 30.1179 37.7576 29.9989 37.5001 30H34.0409L33.4851 33.3334H37.7351L38.3092 31.0401ZM25.6834 33.3333L25.1276 30H20.9167L21.8042 33.3333H25.6834Z" fill="#181815"/>
</svg>
