<svg width="60" height="60" viewBox="0 0 60 60" fill="none" xmlns="http://www.w3.org/2000/svg">
<path fill-rule="evenodd" clip-rule="evenodd" d="M30 60H6C2.68766 59.9967 0.00330738 57.3123 0 54V6C0.00330738 2.68766 2.68766 0.00330738 6 0H30C33.3123 0.00330738 35.9967 2.68766 36 6V8C36 8.55228 35.5523 9 35 9C34.4477 9 34 8.55228 34 8V6C34 3.79086 32.2091 2 30 2H29.618L27.447 6.342C26.9415 7.36059 25.9011 8.00349 24.764 8H11.236C10.0989 8.00349 9.05851 7.36059 8.553 6.342L6.382 2H6C3.79086 2 2 3.79086 2 6V54C2 56.2091 3.79086 58 6 58H30C32.2091 58 34 56.2091 34 54C34 53.4477 34.4477 53 35 53C35.5523 53 36 53.4477 36 54C35.9967 57.3123 33.3123 59.9967 30 60ZM24.764 6C25.1431 6.00145 25.49 5.78688 25.658 5.447L27.382 2H8.618L10.342 5.447C10.51 5.78688 10.8569 6.00145 11.236 6H24.764ZM27 54.9999C27 55.5522 26.5523 55.9999 26 55.9999H10C9.44774 55.9999 9.00002 55.5522 9.00002 54.9999C9.00002 54.4476 9.44774 53.9999 10 53.9999H26C26.5523 53.9999 27 54.4476 27 54.9999ZM54 11H26C22.6877 11.0033 20.0033 13.6876 20 17V23.4L9.05302 29.238C8.40307 29.5861 7.99739 30.2637 7.99739 31.001C7.99739 31.7383 8.40307 32.4158 9.05302 32.764L20 38.6V45C20.0033 48.3123 22.6877 50.9967 26 51H54C57.3123 50.9967 59.9967 48.3123 60 45V17C59.9967 13.6876 57.3123 11.0033 54 11ZM58 45C58 47.2091 56.2091 49 54 49H26C23.7909 49 22 47.2091 22 45V38C22.0003 37.6305 21.7969 37.291 21.471 37.117L10 31L21.474 24.881C21.7981 24.7065 22.0002 24.3681 22 24V17C22 14.7908 23.7909 13 26 13H54C56.2091 13 58 14.7908 58 17V45ZM31.347 21.9999H52C52.652 22.0003 53.2628 22.3184 53.6369 22.8524C54.011 23.3863 54.1013 24.0691 53.879 24.6819L50.609 33.6819C50.3222 34.4727 49.5712 34.9995 48.73 34.9999H33.514L33.708 36.1649C33.7886 36.6467 34.2055 36.9998 34.694 36.9999H50C50.5523 36.9999 51 37.4477 51 37.9999C51 38.5522 50.5523 38.9999 50 38.9999H49.649C49.8771 39.4673 49.9971 39.9799 50 40.4999C50 42.4329 48.433 43.9999 46.5 43.9999C44.567 43.9999 43 42.4329 43 40.4999C43.0023 39.9801 43.1216 39.4674 43.349 38.9999H38.649C39.4073 40.5633 38.9038 42.4462 37.4666 43.4225C36.0293 44.3989 34.0933 44.173 32.9195 42.892C31.7456 41.611 31.6892 39.6627 32.787 38.3159C32.2271 37.8558 31.8532 37.208 31.735 36.4929L29.292 21.8349C29.2114 21.3531 28.7945 21.0001 28.306 20.9999H27C26.4477 20.9999 26 20.5522 26 20C26 19.4477 26.4477 19 27 19H28.306C29.7739 18.9963 31.0275 20.0584 31.265 21.5069L31.347 21.9999ZM35.5 41.9999C36.3284 41.9999 37 41.3284 37 40.4999C37 39.6715 36.3284 38.9999 35.5 38.9999C34.6716 38.9999 34 39.6715 34 40.4999C34 41.3284 34.6716 41.9999 35.5 41.9999ZM46.5 41.9999C47.3284 41.9999 48 41.3284 48 40.4999C48 39.6715 47.3284 38.9999 46.5 38.9999C45.6716 38.9999 45 39.6715 45 40.4999C45 41.3284 45.6716 41.9999 46.5 41.9999ZM33.18 32.9999H48.73L52 23.9999H31.68L33.18 32.9999Z" fill="#181815"/>
</svg>
